/* XPM */
static char *A_black_image[] = {
/* columns rows colors chars-per-pixel */
"128 97 23 1 ",
"  c #040303",
". c #050303",
"X c #040403",
"o c #050403",
"O c #040503",
"+ c #050503",
"@ c #060403",
"# c #060503",
"$ c #070503",
"% c #040404",
"& c #050404",
"* c #040504",
"= c #050504",
"- c #060404",
"; c #060504",
": c #070504",
"> c #050604",
", c #060604",
"< c #070604",
"1 c #080503",
"2 c #080603",
"3 c #080504",
"4 c #080604",
/* pixels */
"ooooooooXXXXXXXXXXXXXXXXXXXXXXXXXXXXXXXXXXXXXXXXXXXXXXXXXXXXXXoooX   XXXXXoooooooooooooooo>>*,*,*,,,,>>,>&>>>&>&>>>&>&>>>&>&>>&>",
"ooooooooXXXXXXXXXXXXXXXXXXXXXXXXXXXXXXXXXXXXXXXXXXXXXXXXXXXXXXXoo    XXXXXXXoooooooooooooooo*,,*,,,,,,,,>&>&>>&>>&>>>&>&&>>&>&&>",
"ooooooXXXXXXXXXXXXXXXXXXXXXXXXXXXX XXXXXXXXXXXXXXXXXXXXXXXXXXXXoo..  XXXXXXXXooooooooooooo>o**,*,,,,>>,&&>>>&&>>&>&>>>&>>>>>>&>>",
"oooooooXXXXXXXXXXXXXXXXXXXXXXXXX X      XXXXXXXXXXXXXXXXXXXXXXXXooooX  XXXXXXoXXXooooooooooo***,,,,,>>>&>>&&>>>&>>&>&>>>>&&>>>>&",
"ooooooXXXXXXXXXXXXXXXXXXXXXXXXXX         XXXXXXXXXXXXXXXXXXXXXooooooo   XXXXXXXXooooooooooooo***&>&>&&>>&>>>>&**>&&>>&>&>&&>&&>&",
"oooooXXXXXXXXXXXXXXXXXXXXXXXXXXX         XXXXXXXXXXXXXXXXXXXXXooooooo.. XXXXXXXXXoooooooo>ooo**,>*>&>>>&>&&>>>**&>>**>*>>>>&>>>>",
"XXoXXoXXXXXXXXXXXXXXXXXXXXXXXXXX     X XXXXXXXXXXXXXXXXXX  Xooooooooo..XooXXXXXXooooooo*o*oooo**&>**&>>&>>&>&***>&>****&&>>>&>&>",
"XXXXXXXXXXXXXXXXXXXXXXXXXXXXXXX       XXXXXXXXXXXXXXXXXXX  XooooooooooooooXXXXXXooooooo*,o,Xo,,*****>&>>&>>>****&>&>****&>&>>>&>",
"XXXXXXXXXXXXXXXXXXXXXXXXXXXXXXXX     XX XXXXXXXXXXXXXXXX  XXooooooooooooooXXXXXXXXXoooo***,ooooo***********,>****>>****>>>>>&&>>",
"XXXXXXXXXXXXXXXXXXXXXXXXXXXXXXX  XXXX XX   XXXXXXXXXoXXXX  oooooooooooooooooXXXXXXXoXXo**,*o>>oo************&>***>&&***&>&&>>>>&",
"XXXXXXXXXXXXXXXXXXXXXXXXXXXXXXXXXXXX       XXXXXXXXXXXXXXXXooooooooooooooooXXXXXXXXXXXoX,*o,oooo.***Xo***>,*>&>&&>>*&>*>>>&>&>>&",
"XXXXXXXXXXXXXXXXXXXXXXXXXXXXXXXXXXXXXX       XXXXXXXooXXXXXXooooooooooooooXXXXXXXXXXXXXo**>>o>ooo***XX**,**,>&>>&>>&>*>&&>>&>>&>",
"XXXXXXXXXXXXXXXXXXXXXXXXXXXXXXXXXXXXXXX          XoooXXXXooXo oo1oooooooooooXXXXXXXXoooo****oooooooooXXX**,,,,>&>>>*****>>>&>>&>",
"XXXXXXXXXXXXXXXXXXXXXXXXXXXXXXXXXXXXXooXX         oooXXXXoo o ..ooooooooooXXXXXXXXXXoooo****ooooooooXXXX***,&&>&>&&*****&&>>&>&>",
"XXXXXXXXXXXXXXXXXXXXXXXXXXXXXXXXXXXXXoX          XXooXXXoo o  .ooooooooooooXXXXXXXXooooooo*ooooooooooXXX***,&&&>>&>***&>>>&>>>>&",
"XXXXXXXXXXXXXXXXXXXXXXXXXXXXXXXXXXXXX XX           . X X o    XoooooooooooXXXXXXXXXXooooooooooooooooXXXX****&&**&>****&&>&>>&&>>",
"XXXXXXXXXXXXXXXXXXXXXXXXXXXoooXXXXXXX                    ......oooo1o1oo@@.......      .ooooooooooXXXX****>***X*>>*******&>>&>>&",
"XXXXXXXXXXXXXXXXXXXXXXXXXXooooooXXXXX                    ......oooooo111@@.1o...        .ooooooooXXXXXX*>>****XX**&*****>>&>>&>>",
"XXXXXXXXXXXXXXXXXXXXXXXXXXXooooXXX oXX    o             . ....ooooooo1o1@@@@o...       .ooooooooXoXXXX***>*>**XX*&>****>&&>>&>&>",
"XXXXXXXXXXXXXXXXXXXXXXXXXXXooooX  o.o    oo             ..o...oooooooooo@@@@o...          .ooooooXXXXX***>>***XX*>&>**>&>>>&>>&>",
"XXXXXXXXXXXXXXXXXXXXXXXXXooooooo....o...oooo            ...oooooooooooo1@1@@....          oooooooXXXXX***>*>XXXX*>******&>>>>&>>",
"XXXXXXXXXXXXXXXXXXXXXXXXooooooo ....o...o  o            ...ooooooooooooo@11@@@... ..       XooooXXXXXXX*****XXXX********>>&&&>>&",
"XXXXXXXXXXXXXXXXXXXXXXXXXoooooo ...ooo..  .               .ooooooooooooo@11@@@@@....      XXXooooXXXXX******XXXX********>&&>>>>&",
"XXXXXXXXXXXXXXXXXXXXXXXXXoooooo ...oooo.o                 ..ooooooooooo1@1@11@@@oo..       XXXXooXXX********XXXX********>>>>&&>>",
"XXXXXXXXXXXXXXXXXXXXoXXXXoXoooXX   ...1...  .... .....    ......oooo...1.@111@@@oooo.......o X oXXXXXXXXXXXXXXXXXX******&>>>>>>>",
"XXXXXXXXXXXXXXoooooooXXXXo>XoXXX    ...1.   ....o.....    ..o.1.oo......111@1@1@ooooo..o....   o.ooXXXXXXXXXXXXXX*******&>&>&>>>",
"XXXXXXXXXXXXXXoooooooXXXXoo>XXXX    ..o...  ....ooo.    . ..1...  ......@11@@1@1o1oo.oo.oo..     ooXXXXXXXXXXXXXXX******>&>>>>>>",
"XXXXXXXXXXXXoooooooooXXXXoXoXXXX    ..o1..   ...ooo.    .....1.. ......@@@111@1@1oooo1o.o..     .oooXXXXXXXXXXXXXX******&>>&>>>>",
"XXXXXXXXXXXXXoooooooXXXXXX**XXXX    .......    ..          ..... ..oo1@@@11@1@@@oo1o1o1..        oooXXXXXXXXXXXXXXXX**X****,>***",
"XXXXXXXXXXXXooooooXXXXXXXXXXXXXX        ..                  .....o1oo1@1@1@1@1@@o1o111.1.       .XooXXXXXXXXXXXXXXXXX*XX********",
"XXXXXXXXXXXXXooooooXXXXXX*XXXXXX                            .....o11111@11@111@@o1o1111o.       .ooXXXXXXXXXXXXXXXXX*X**********",
"XXXXXXXXXXXXX  o   XXXXXX*XooXoo..                          ...ooo1111@1@11@@@@@o1111oooo.       oooXXXXXXXXXXXXXXXX*******,*,*,",
"X>XX*** *XX X            ***& .oo..       ....  ......        ..@2@@@22222@11@@@o.11111oo..    . oooXXXXXXXXXXXXXXXXXXXXXX>>>>>>",
"XXX>****XXXX X*           **&&..o..       .......... .        ..2@@@22@@@@2@1@@@11o11o1oo....  . oooXXXXXXXXXXXXXXXXXXXXX>X>X>>>",
"X>X>****XXXX **  &       &*& &  o.       ooo....@@..            @@@@@@222211@11@o11oo11ooo... ..oooXXXXXXXXXXXXXXXXXXXXXX>XX>>>>",
"XXXX****XXXX****&&&        &            .ooo....@...            @@@@@2@@2@@11@@@1111o.oooo...... oooXXXXXXXXXXXXXXXXXXXXXX>>XXXX",
"XX**>****** *****&&                     .o......@@...           .....@@@22@@@@@1@@1@oooooooo.... oooXXXXXXXXXXXXXXXXXXXXXXX>>ooo",
"X>**>***  &&****&&&                     ........@@@@..          ......@@@22@@@@111@11o1ooooo1o..XooXXXXXXXXXXXX>>XXXX>XXXX>oX>>>",
">*>******&&&&***&&                      ....  ...@@@..            ....@@@@@@.@@@@1111o1oooo1oo.. oooXXXXXXXXX>XXXXXX>XXXXXXXo>>>",
">**>>***&&&&&&&&&&                      ..   .....@...             ..@@@@@@@@@@111@@11o1ooo1o... ooXXXXXXXXXXX>>XXX>X>>XXXXX>>>>",
">&&>&&&&&&&&&&&&&                       ..        ....                  ....@@@@@@@@@@1@oooooo.. oooXXXXXXXXXX>XXXX>X>>X>XXXX>>>",
">>>>&&&&&&&&&&&&&                       ..        ....                  ....@111@@..@@1@ooo1oo...ooXXXXXXXXXXXXXXXXXXXX>>>>XXXoo",
"&>>&&&&&&&&&&&&&   X                    .           .                   . ..@1@@@@..@1@@ooooooo..XooXXooXXXXXXXXXXXXXX>>>>XXoooo",
">&>&&&&&&&&&&&&&&*Xo   .           .    ..                              ....@@@@@...@@1@oooooo...ooooXoo>X>>>XXXX>X>XXX>>XXXXooo",
">>&&&&&&&&&&&&&&ooo* ...          ..                   .                    ........@@@@ooooooooooooooo>>>>>>XXX>>>XXXX>>ooooooo",
"&>>&&&&&&&&&&&&&oooo....          ..                   .                    . . ....@@1@ooooooooooooooo>>>>>>>X>X>>>XXXXXooooooo",
"&>>&&&&&&&&&&&&&oooo....           .                  ....                    . ....@@@@oooooooooooooo>>>>>>X>XXX>>XXoXXXXoooo>o",
">>&>&&&&&&&& &  ooooo..            .                  ......                  .....@@@@@...ooooooooooo>o>XX>XXXX>X>XoXoooooo>>>>",
">&,,,,,,&&&&&&&&&&$$$$&&......                          .ooo..                    ......  .o.oooooo>>>>o>XXXooooXXXXooooooo>o>>>",
">>,*** &&&3&&&&&&.33$&...@....                          ..o...                    ......   ....ooo1o2>2oXoooXoooXXXXoooooooo>>>>",
"&>>*** &&*33&&&$$$333...@@@@....                            ..                      ..     .....ooo2o21o>ooooXoooXXooooooooo>>>2",
">&***   &*33$&&&$3333&&.@@@@....                            ..                      .       ....o12o22o1>ooooooooooooo>ooooo>>>>",
"1...&&&&*333&&&&$3333$&.@@2@@@@@..                                                            .oo1o1o111>o1ooooooooooooooooo>>2>",
"....&&&&33**&..&&&$$33$32@@2@@@@...                                                          .oooooo111111o1o1oooooooooooooo>>>>",
"......&33*3*&...&&.$3333222@@@@2o1.                                                         .oo1ooo111111111oo1ooooooooooooo>>2>",
".....&3*33**&.....&$33332@222@221.                                                          .ooooooo1111o11o1oooooooooooooo>>>>>",
"&.&. .o**3**$&$&...&$3$$:$$$22@@....                                                    ....@@..1..1111111o1ooooooooooooooo>o>o2",
"*&*. ..oo*oo*33&..&$3$$&&$$3@2@@....                                                    ..@@1....111.1112ooooooooooooooooooooooo",
"***&  ...ooo3333&&@$$$&&&$$$@2@@  ..                                                    ..@1@....o1111.1211oooooooooooo>oooooooo",
"***........o*.&o$$$$$$.&&&$$2@@@   .                                                    ..@11@........1.ooooooooooooo1oooooooooo",
"***3&&. ..  ...&$$33$&..&$1@222@. ....                                              ...@@@1@1......o.o1.oooooooooooooooooooooooo",
"****... ..    .&3333$&..&&@12@@@. .. .                                              ....@1@11.........oooooooooooooooooooooooooo",
"3***.....      .333&&...&@@@22@@....                                                ....@@@@.......oooooooo1oooooooooooooooooooo",
"333*......     &333&....&@@@2@2@....                                               ...............o1oooooooooooooooooooooo>ooooo",
"@@@...........&$333&oooo.1o111111oo.                                                              o1oooooooooooooooooooooooooooo",
"2@@@...&...@..&$333*3**31o1111o11oooo o o..                                                       ooo1oooooooooooooooooooooooooo",
"2@$@@$&&&@@1@@&$*33333441o11o1o11oooooooooo                                                       ..oo1ooooooooooooooooooooooooo",
"@2$$$$&&&$@@1@$313333344111o111111ooooooooo                                                        .111ooooooooooooooooooooooooo",
"@@@@@$&$&.@@&3&3@@1334441111111111oooooooooo                                                       ..o1.oooooooooooooooooooooooo",
"@@@@&&&&&&..&&$&11133144111134111o1oooooooo                                                         ....  oooo .oooo>o*ooooooooo",
"..@&&&&&&&.&&&&&@113111111o134311oooooooooo.                                                        .... o o    ooooo,oooooooooo",
"..@.&&&&&&$.&*&&.@@3111111o133*111ooooooooo                                                        .....  ooo  .oooooo**Xooooooo",
"@@&&&&&&&::&:&&&...&.3334,*4*3o1oooooooo.                                                           ........   .&33*&.&*oo*1oooo",
"@@$$&&&&&::44,,&.....$334,***oooooooooooo.                                                          ....o...   o*333..&***oooooo",
"@@@&&&&&&$$$&,&&&....&334**ooooooooooooo.                                                           ....oo..  oo333*..o***oooooo",
"@@@$&&&&&$&$&&&&&&...3&322oooooooooooooooo..                                                         ..   ....oo&.ooo..1o*oo****",
"..&&&&&&&&&&&&&&&&@@1@1@1ooooooooooooooooooX                                                               ooooo.ooo..1o1@1.**3&",
".&&&&&&&&&&&&&$&&$@111@1ooooooooooooooooooo.                                                             ooooooo.ooo&3.1.1..1*&&",
"&&&&&&&&&&&&&$@$@$1@11@@1ooooooo111.oo1ooo                                                              .ooooooooooo**3*1.@@@@1&",
"&&&&&&&&&&&&&$1@3@@1@@3.oooooooo1ooooooo                                                                oooooooooo1****..11@11@1",
"&&&&&&&&&:&:::::*3*3&$$&&&&&ooooo1ooooooooo                                                     .......oooooo...oooo**3&3&33333*",
"&&& &&::::::::::*,3&&&&&&&&&ooooooooXooooXo                                                     .....ooo1o1oo....ooo&**3*3*&&**3",
"&&&&&:$$:4:4444:,&&&&&&&&&&.oooooXooXooo.                                                       ..oo.oo11ooo....oooo&&*333*,,3**",
"&&&&&&:$:4444:4:,&&&&&&&....oooXXooo Xoo.                                                       ..ooooooo1ooo..&oooo&&3333,,,**3",
"&&&&&&&$:::::::&&&&&&&&&*$ooooXoXXX  oX                                                     oooo.oooooo11ooo*&&&*******3,,,&,,,:",
"@&$&&&&$&&&:&:&&&&&&&&&&&&ooooXoooX                                                          ooooooooooooooo******3**3**&&&,,,44",
"@$$$&&&&&&&&&&&&&&&&&&&&&&.ooXXoooX                                                          ooooooooooooooo3****3***,&*&&&,,444",
"$$&&&&&&&&&:&&&&&&&&&&&&..ooooXXXo     X                                       o         o o ooooooo1ooooooo***3****,,*&*&4&4&4&",
"&&&&&&&&&:$&:&&&&&&&&&&&XXXXXXXXXXX    X                                      o  .o.oooooooooooooooooooo...oo***&&&&&&&,*3,44:&&",
"&&&&&&&&&:::&&&&&&&&&&&&XXXXXXXXXX   XX                                       oo.ooooooooooooooooooooooo...oo1**&&&&&&&&**,4,&&&",
"&&&&&&&&&:&::&&&&&&&&&&&XXXXXXXXXXX XXXX                                     ooooooooooooooooooooooo..oo....oo**&&&&&&&44,444&4:",
"&&&&&&&&&&&&&&&&&&&&&&&&XXXXXXXXXXX XXXXX       XX                          oooooooooooooooooooooooo........o111&&&&&&&444,,,:4:",
"&&&&&&&&&&&&&&&&&&&&&&&&XXXXXXXXXXXXXXXX      XXX                         XXXoooooooooooooooooooooo..  .&&&&,,,4&&&&&&,44,,,&444",
"&&&&&&&&&&&&&&&&&&&&&&&&XXXXXXXXXXXXXX XXX     XXXX  X      X              Xooooooooooooooooooooooo.....&&&&&,,<<&&&&,&44,&&,44,",
"&&&&&&&&&&&&&&&&&&&&&&&&*XXXXXXXXXXXX X  X XXXXXXXX XX XXXX X X            XoooXooooooooooooooooooo.....&&&&&&&&&&&&&&,44,&,,&&,",
"&&&&&&&&&&&&&&&&&&&&&&&&*XXXXXXXXXXXXX   XXXXXXXXXXXXXXXXXXXXX             XoXXXXooooooooooooooooo.....o$4&&&,&&&&&&,&,444,,&,,&",
"&&&&&&&&&&&&&&&&&&&&&&&&&&&&&&&&XXXXX    XXXXXXXXXXXXXXXXXXXXXX         oooooooo...&$*****3*****oooo..ooo1oooooo*****33333***,**"
};
