/* XPM */
static char *gab[] = {
/* columns rows colors chars-per-pixel */
"64 64 130 2 ",
"   c black",
".  c #090403",
"X  c #0E0906",
"o  c #070708",
"O  c #070808",
"+  c #0B0A09",
"@  c #110906",
"#  c #130D0A",
"$  c #17120E",
"%  c #18130F",
"&  c #1A1512",
"*  c #1C1916",
"=  c #2E0F08",
"-  c #2F1009",
";  c #34150D",
":  c #3A170F",
">  c #3A180F",
",  c #251C15",
"<  c #291E17",
"1  c #241D1C",
"2  c #3C1C12",
"3  c #26211E",
"4  c #2D241D",
"5  c #2F2620",
"6  c #302620",
"7  c #332B25",
"8  c #362D2A",
"9  c #392F2C",
"0  c #3C312E",
"q  c #3E3331",
"w  c #421B11",
"e  c #442117",
"r  c #4A2216",
"t  c #452319",
"y  c #4B261B",
"u  c #4D281D",
"i  c #532D1F",
"p  c #482D27",
"a  c #4C2F28",
"s  c #532D20",
"d  c #563123",
"f  c #593323",
"g  c #54362C",
"h  c #5B3529",
"j  c #5D392B",
"k  c #603D27",
"l  c #633C2E",
"z  c #683F2F",
"x  c #663E30",
"c  c #67412A",
"v  c #6C452C",
"b  c #74492F",
"n  c #664031",
"m  c #694130",
"M  c #6E4837",
"N  c #724735",
"B  c #744A33",
"V  c #7A4E32",
"C  c #744C3A",
"Z  c #7C5136",
"A  c #7E5339",
"S  c #714E44",
"D  c #755247",
"F  c #7E5440",
"G  c #825436",
"H  c #835639",
"J  c #85593C",
"K  c #8B5B3B",
"L  c #875C41",
"P  c #875C48",
"I  c #885E4A",
"U  c #8F6346",
"Y  c #926243",
"T  c #9A6745",
"R  c #9C6947",
"E  c #946649",
"W  c #976849",
"Q  c #9E6C49",
"!  c #A06F4E",
"~  c #A1704E",
"^  c #A37251",
"/  c #A6795A",
"(  c #A97C5E",
")  c #9A7962",
"_  c #A37E66",
"`  c #A87D60",
"'  c #A68167",
"]  c #AD8265",
"[  c #AC876D",
"{  c #AD886E",
"}  c #B88C6F",
"|  c #A48570",
" . c #AE8A72",
".. c #B18B72",
"X. c #B98E72",
"o. c #BB9175",
"O. c #B7947C",
"+. c #B9957D",
"@. c #C09577",
"#. c #C59B7E",
"$. c #B19581",
"%. c #BAA191",
"&. c #C69D81",
"*. c #C5A58F",
"=. c #CEA68B",
"-. c #CFA98F",
";. c #D0A78C",
":. c #D1A98E",
">. c #CAAA94",
",. c #D4AD92",
"<. c #CFB3A1",
"1. c #D1B6A3",
"2. c #D5B8A6",
"3. c #DFBBA1",
"4. c #E1BDA4",
"5. c #E3C0A8",
"6. c #E7C7B1",
"7. c #EACBB5",
"8. c #EDCEB9",
"9. c #D6CECC",
"0. c #DDD4CF",
"q. c #DED5D0",
"w. c #E2D8D3",
"e. c #E9DED6",
"r. c #EADFD8",
"t. c #E6E2E1",
"y. c #EDE9E7",
"u. c #F4EEEA",
"i. c white",
"p. c None",
/* pixels */
"p.p.p.p.p.p.p.p.p.p.p.p.p.p.p.p.                                                                p.p.p.p.p.p.p.p.p.p.p.p.p.p.p.p.",
"p.p.p.p.p.p.p.p.p.p.p.p.p.p.p.p.                                                                p.p.p.p.p.p.p.p.p.p.p.p.p.p.p.p.",
"p.p.p.p.p.p.p.p.p.p.p.p.p.p.p.p.                                                                p.p.p.p.p.p.p.p.p.p.p.p.p.p.p.p.",
"p.p.p.p.p.p.p.p.p.p.p.p.p.p.p.p.. . . . . . . . . . . . . . . . . . . . . . . . . . o . . . . . p.p.p.p.p.p.p.p.p.p.p.p.p.p.p.p.",
"p.p.p.p.p.p.p.p.p.p.p.p.      . 2 t t t t w p w t t t t t t t t t t e t t t t t w w p w > > > ; .       p.p.p.p.p.p.p.p.p.p.p.p.",
"p.p.p.p.p.p.p.p.p.p.p.p.      . t u p u s u y u u u u u u p u u u u u u u u p u u u u u w w w > .       p.p.p.p.p.p.p.p.p.p.p.p.",
"p.p.p.p.p.p.p.p.p.p.p.p.      . t p u u p r s y u u u u u u u u u u u u u u u u u u s u w w w 2 .       p.p.p.p.p.p.p.p.p.p.p.p.",
"p.p.p.p.p.p.p.p.p.p.p.p.. . . @ w u u u u u u s u u u u u u u u u u u u u u u u p s w s w w w 2 . . . . p.p.p.p.p.p.p.p.p.p.p.p.",
"p.p.p.p.p.p.p.p.      . 2 t t t y u u u w y u w u u u u u u u u u u u u u u u u t t r r y y y w > : : ; .       p.p.p.p.p.p.p.p.",
"p.p.p.p.p.p.p.p.      . t a u u u u u y p w w p y u u u u u u u u u u u u u u y r t t t u u u u w w w : .       p.p.p.p.p.p.p.p.",
"p.p.p.p.p.p.p.p.      . t u u u u u u u w u w w u u u u u u u u u u u u u u u u t t r t u u u u w w w : .       p.p.p.p.p.p.p.p.",
"p.p.p.p.p.p.p.p.      . t u u u u u u u u w y y u u u u y u u u u u u u u u u u t t t y y u u y w w w : .       p.p.p.p.p.p.p.p.",
"p.p.p.p.p.p.p.p.      . t u u u u u u u r t t r y y u y t r t r u u u u u u u y r t y w p u u u w w w 2 .       p.p.p.p.p.p.p.p.",
"p.p.p.p.p.p.p.p.      . t u u u u u u u t r t t u p i u r t t t u u u u u u u u r t y w u u s y w w w > .       p.p.p.p.p.p.p.p.",
"p.p.p.p.p.p.p.p.      . t u u u p r y s r w t t y y y y r t t t u u u u y u u y y w u u u u u r w w w > .       p.p.p.p.p.p.p.p.",
"p.p.p.p.p.p.p.p.. . O + t u u u y s y y s s u y i i y u u u u u u u u u a i i i t t w y u u u u w w w > .       p.p.p.p.p.p.p.p.",
"p.p.p.p.      . 2 t t t u u u u u u u i b Z Z B s u u s B Z Z B s u y s B Z Z N u u w p u u u y w w w > .       p.p.p.p.p.p.p.p.",
"p.p.p.p.      O t u p u u u u u u u u i Z H H Z s u y s Z H J Z s u u s A H H Z u w t w u u u y w w w > .       p.p.p.p.p.p.p.p.",
"p.p.p.p.      . t u u u u u u u u u y i Z H H Z s y u s Z H H Z s u u s Z H H Z u w w y y s u u w w w > .       p.p.p.p.p.p.p.p.",
"p.p.p.p.      . t u u u u u u u s d a f Z H H Z f s s f Z A H Z s u u s Z H H Z s s u u y y s y w w w 2 @ . . . p.p.p.p.p.p.p.p.",
"p.p.p.p.      . t u u u u u u s B Z Z Z A H H H Z Z Z Z H H H V s u y s Z H H A G V Z N u t t r y i y t 2 > > ; .       p.p.p.p.",
"p.p.p.p.      . t u u u u u u s Z H H H H H H H H H H H H H H A s u p s Z H H H H H J V s r w u y y i u w w w > .       p.p.p.p.",
"p.p.p.p.      . t a u u u u u s Z H H H H H H H H H H H H H H V s u y i Z H H H H H H V u w u w u u u y w w w 2 .       p.p.p.p.",
"p.p.p.p.      . 2 t t t y y y i Z H H H A A A Z A A A A A H H V f i i f V A Z A A A H V s u u u u u u y r r w w .       p.p.p.p.",
"p.p.p.p.p.p.p.p.. . . @ w w w r Z K K H m x x x x x x x A H H H G G G G z l z x l l x z G G G V i u u i v b b c X       p.p.p.p.",
"p.p.p.p.p.p.p.p.      . > w w r G K K H x j j x j l j x A H H H K K K H l l l l l l l l G K K G i u y i b V V v X       p.p.p.p.",
"p.p.p.p.p.p.p.p.      . > w w r G K K G l l l j j j j x A H H H K K K G x l l j l h k l H K K G s u u i b V V v X       p.p.p.p.",
"p.p.p.p.p.p.p.p.      . > w w r H K K K l h j j S D D D J J J L K K K K l h h j S D D D K K K K s u u i b V V v X       p.p.p.p.",
"p.p.p.p.p.p.p.p.      . : w w r T ~ ~ E e ; ; a 9.y.y.w.` Q ! Q T T ! Y w ; ; a 9.y.y.w./ T R Y f u u i b V Z v X       p.p.p.p.",
"p.p.p.p.p.p.p.p.      . : w w r W ~ ^ E 2 - = a t.i.i.u.] ^ ^ ^ ! ! ! K 2 = = p t.i.i.u.( R ! Y f y u i b V V v X       p.p.p.p.",
"p.p.p.p.p.p.p.p.      . : w w y W ^ ^ E 2 - = a t.i.i.u.] ^ ^ ~ T R ! K 2 = = p r.i.i.u.( ! Q Y f u u i b Z Z v @       p.p.p.p.",
"p.p.p.p.p.p.p.p.      . : w w r W ~ ^ Q y 2 > g q.u.u.r.] ^ ^ ~ R ! ! Y t 2 2 g 0.u.u.e./ T Q Y p t t r c v v k X       p.p.p.p.",
"p.p.p.p.p.p.p.p.      . > w w r W ^ ^ ^ W W E Q ' ] ] ' ^ ^ ^ ^ R ! R R K K T T / ( ( / ~ ~ ^ U % . . . X X X X p.p.p.p.p.p.p.p.",
"p.p.p.p.p.p.p.p.      . > w w y W ^ ^ ^ ^ ^ ^ ^ ~ ^ ^ ^ ^ ^ ^ ^ R R ! R ~ R ! R R Q R Q ~ ^ ^ U $               p.p.p.p.p.p.p.p.",
"p.p.p.p.p.p.p.p.      . > w w r Q ^ ^ ^ ^ ^ ~ ^ ^ ^ ^ ^ ^ ^ ^ ^ ! R R R R R R R Q Q Q Q ^ ^ ^ U #               p.p.p.p.p.p.p.p.",
"p.p.p.p.p.p.p.p.      . > w w y U U U E ^ / / ^ ~ ! ! ! Q Q ! Q T T R T R T R R ~ ~ ~ ! E E E J #               p.p.p.p.p.p.p.p.",
"p.p.p.p.p.p.p.p.p.p.p.p.p.p.p.p.+ $ @ 3 ] @.o.o.U J J H Z Z G Z G Z Z G G G G G } @.@.] < # # # p.p.p.p.p.p.p.p.p.p.p.p.p.p.p.p.",
"p.p.p.p.p.p.p.p.p.p.p.p.p.p.p.p.      $ { #.#.o.L G H H V V V V V V V V G b V G o.#.#.{ %       p.p.p.p.p.p.p.p.p.p.p.p.p.p.p.p.",
"p.p.p.p.p.p.p.p.p.p.p.p.p.p.p.p.      % [ #.#.o.U H H H V V V V b V V V V V G G o.#.#.[ %       p.p.p.p.p.p.p.p.p.p.p.p.p.p.p.p.",
"p.p.p.p.p.p.p.p.p.p.p.p.p.p.p.p.$ % $ 4 { *.#.o.Z B B B H H H H H G H G v v z V o.&.#...4 $ & % p.p.p.p.p.p.p.p.p.p.p.p.p.p.p.p.",
"p.p.p.p.p.p.p.p.p.p.p.p.      $ ) { { ..=.;.;.O., X X , ' o.X.o.o.o.o.' , . X , +.:.;.=...[ { ) $       p.p.p.p.p.p.p.p.p.p.p.p.",
"p.p.p.p.p.p.p.p.p.p.p.p.      % { #.#.#.;.:.:.O.&     % { #.#.#.#.#.#.{ %     & +.:.:.=.#.#.#.{ &       p.p.p.p.p.p.p.p.p.p.p.p.",
"p.p.p.p.p.p.p.p.p.p.p.p.      $ { #.#.#.:.:.:.+.&     % { #.#.#.#.#.#.{ %     & +.:.:.=.#.#.#.[ $       p.p.p.p.p.p.p.p.p.p.p.p.",
"p.p.p.p.p.p.p.p.p.p.p.p.& & & 4 ..&.#.&.;.:.:.+.&     % { #.#.#.#.#.#.{ %     & +.:.:.;.&.#.&.{ 4 $ % % p.p.p.p.p.p.p.p.p.p.p.p.",
"p.p.p.p.p.p.p.p.      & | +.O.+.=.;.;.;.:.:.:.O.&     $ [ #.#.#.;.;.:.O.%     & +.:.:.:.=.=.=.=...{ { ) %       p.p.p.p.p.p.p.p.",
"p.p.p.p.p.p.p.p.      & +.,.:.:.:.:.:.:.:.:.:.O.&     % [ #.#.#.;.:.:.+.&     & +.:.:.:.:.:.-.-.#.#.#.{ %       p.p.p.p.p.p.p.p.",
"p.p.p.p.p.p.p.p.      & +.,.,.:.:.:.:.:.:.:.:.+.&     % [ #.#.#.;.:.:.+.&     & +.,.:.:.:.,.:.-.#.#.#.{ %       p.p.p.p.p.p.p.p.",
"p.p.p.p.p.p.p.p.      &  .&.&.&.=.=.;.:.:.:.:.+.5 % & 4 ..&.#.&.;.:.:.+.6 % & 6 +.:.:.;.&.&.&.&.o.o.o.' $       p.p.p.p.p.p.p.p.",
"p.p.p.p.p.p.p.p.      X C F F P o.&.&.&.;.:.:.=.+.O.O.+.=.-.=.=.:.-.:.=.+.+.O.+.-.:.>.&.I F F A C C C n X       p.p.p.p.p.p.p.p.",
"p.p.p.p.p.p.p.p.      X x N M A X.#.#.#.;.:.:.:.,.:.,.:.:.:.:.-.:.:.:.:.,.:.:.,.:.:.,.&.F N N M m x m j X       p.p.p.p.p.p.p.p.",
"p.p.p.p.p.p.p.p.      X x C N F o.&.#.&.=.:.:.:.:.:.:.:.:.:.:.-.-.:.:.:.:.:.:.:.-.:.,.&.F N C N m m m j X       p.p.p.p.p.p.p.p.",
"p.p.p.p.p.p.p.p.      X j x x M _ { { ..:.,.,.,.,.,.,.,.,.,.,.,.,.,.,.,.,.,.,.,.,.:.,.&.C x x x j j j d X       p.p.p.p.p.p.p.p.",
"p.p.p.p.p.p.p.p.p.p.p.p.O X X @ $ & $ 6 <.7.6.6.6.6.6.7.6.6.7.6.6.6.7.6.7.6.7.6.3.3.4.*.< X X X X O X X p.p.p.p.p.p.p.p.p.p.p.p.",
"p.p.p.p.p.p.p.p.p.p.p.p.              * <.8.8.8.7.8.7.8.7.8.7.8.7.7.7.7.7.8.7.7.4.3.4.*.&               p.p.p.p.p.p.p.p.p.p.p.p.",
"p.p.p.p.p.p.p.p.p.p.p.p.              * <.8.8.7.8.7.7.8.8.8.8.8.8.8.8.8.7.7.7.7.4.3.4.*.*               p.p.p.p.p.p.p.p.p.p.p.p.",
"p.p.p.p.p.p.p.p.p.p.p.p.              & <.8.7.7.7.7.7.6.1.<.<.<.<.<.<.2.7.7.7.7.4.4.4.*.&               p.p.p.p.p.p.p.p.p.p.p.p.",
"p.p.p.p.p.p.p.p.p.p.p.p.p.p.p.p.      * <.8.8.7.5.4.5.>.7 * * * * * & 9 1.8.8.7.4.4.4.*.*       p.p.p.p.p.p.p.p.p.p.p.p.p.p.p.p.",
"p.p.p.p.p.p.p.p.p.p.p.p.p.p.p.p.      * <.8.7.7.4.4.4.*.*             * <.8.7.7.4.4.4.*.*       p.p.p.p.p.p.p.p.p.p.p.p.p.p.p.p.",
"p.p.p.p.p.p.p.p.p.p.p.p.p.p.p.p.      * 1.8.8.8.5.4.5.*.&             * 1.8.8.7.4.4.4.*.*       p.p.p.p.p.p.p.p.p.p.p.p.p.p.p.p.",
"p.p.p.p.p.p.p.p.p.p.p.p.p.p.p.p.      & %.2.1.1.>.*.>.$.&             * %.1.<.<.>.>.>.$.&       p.p.p.p.p.p.p.p.p.p.p.p.p.p.p.p.",
"p.p.p.p.p.p.p.p.p.p.p.p.p.p.p.p.      o 8 q q 0 3 1 3 1 p.p.p.p.p.p.p.p.3 1 1 3 9 0 0 8 o       p.p.p.p.p.p.p.p.p.p.p.p.p.p.p.p.",
"p.p.p.p.p.p.p.p.p.p.p.p.p.p.p.p.      . * 1 1 1 + o o o p.p.p.p.p.p.p.p.o o o o 1 1 1 1 .       p.p.p.p.p.p.p.p.p.p.p.p.p.p.p.p.",
"p.p.p.p.p.p.p.p.p.p.p.p.p.p.p.p.      . 1 3 1 1 + O o o p.p.p.p.p.p.p.p.O . o O 1 1 1 *         p.p.p.p.p.p.p.p.p.p.p.p.p.p.p.p.",
"p.p.p.p.p.p.p.p.p.p.p.p.p.p.p.p.        1 3 3 3 + + O + p.p.p.p.p.p.p.p.O o o X 1 3 1 1 o       p.p.p.p.p.p.p.p.p.p.p.p.p.p.p.p."
};
