/* XPM */
static char *leo[] = {
/* columns rows colors chars-per-pixel */
"64 64 190 2 ",
"   c #000000",
".  c #0E0A05",
"X  c #06060B",
"o  c #0F0B08",
"O  c #0A0706",
"+  c #110B06",
"@  c #110B09",
"#  c #1B130C",
"$  c #0B0D17",
"%  c #0C0F19",
"&  c #0F111B",
"*  c #121317",
"=  c #1C1415",
"-  c #1B1816",
";  c #141419",
":  c #1F1418",
">  c #2D1D1E",
",  c #241719",
"<  c #22170D",
"1  c #111322",
"2  c #191D35",
"3  c #2E1F20",
"4  c #1D2031",
"5  c #2D2423",
"6  c #26262D",
"7  c #352323",
"8  c #2A2019",
"9  c #5A3817",
"0  c #653F19",
"q  c #4B3034",
"w  c #66401A",
"e  c #69431E",
"r  c #72471B",
"t  c #74491E",
"y  c #754C23",
"u  c #784D23",
"i  c #7B542A",
"p  c #775128",
"a  c #724E33",
"s  c #765232",
"d  c #272B50",
"f  c #2D315B",
"g  c #343457",
"h  c #363A65",
"j  c #3C416E",
"k  c #45405B",
"l  c #7E5B41",
"z  c #4A4E7C",
"x  c #494768",
"c  c #8B3737",
"v  c #9F3F3F",
"b  c #845527",
"n  c #855629",
"m  c #875B2D",
"M  c #8A5E2F",
"N  c #855D35",
"B  c #8A5F32",
"V  c #835E38",
"C  c #8D6032",
"Z  c #8A613A",
"A  c #93643C",
"S  c #96693C",
"D  c #996B3D",
"F  c #8B4246",
"G  c #9E4B4F",
"H  c #A04D51",
"J  c #986641",
"K  c #976C44",
"L  c #956647",
"P  c #A5714D",
"I  c #AE907E",
"U  c #4E5282",
"Y  c #52578C",
"T  c #565B8A",
"R  c #4F5993",
"E  c #5A6093",
"W  c #4E5DA9",
"Q  c #5D66A8",
"!  c #5768BF",
"~  c #5869BF",
"^  c #5564B3",
"/  c #656FB8",
"(  c #616EB0",
")  c #6671BA",
"_  c #6A75BD",
"`  c #777DBB",
"'  c #616AAD",
"]  c #5A6BC1",
"[  c #5768C0",
"{  c #6574C5",
"}  c #6C7BC5",
"|  c #6979CA",
" . c #6877C9",
".. c #6C7DD4",
"X. c #707FCD",
"o. c #847F9A",
"O. c #BB708A",
"+. c #CD7D99",
"@. c #D27E9C",
"#. c #C6788D",
"$. c #7B81BD",
"%. c #7682C9",
"&. c #7281D2",
"*. c #7A86D1",
"=. c #7B8BDD",
"-. c #6F80D6",
";. c #7B8CE1",
":. c #B5978B",
">. c #B7988A",
",. c #B89D92",
"<. c #AB938E",
"1. c #BDA18E",
"2. c #BEA194",
"3. c #8389A9",
"4. c #8C93B7",
"5. c #949BBC",
"6. c #9594B3",
"7. c #928DA8",
"8. c #BCABA8",
"9. c #C29D84",
"0. c #C59F8C",
"q. c #DF879F",
"w. c #D3809D",
"e. c #C6A28B",
"r. c #C2A084",
"t. c #CBAB92",
"y. c #D3B49E",
"u. c #E0B59F",
"i. c #D782A0",
"p. c #E18EAB",
"a. c #EB8DAF",
"s. c #E189A1",
"d. c #E293AE",
"f. c #EF97AE",
"g. c #ED8EB1",
"h. c #EF91B3",
"j. c #F19AB1",
"k. c #FC9EBF",
"l. c #F79BBB",
"z. c #C8AEA5",
"x. c #D0ADA4",
"c. c #C8B3A4",
"v. c #C6B0A1",
"b. c #D6B6A1",
"n. c #D6B9A4",
"m. c #DAB9A3",
"M. c #D6B6A7",
"N. c #D2BEB9",
"B. c #D3BCB5",
"V. c #C6B7BE",
"C. c #E1B7A0",
"Z. c #E1B8A3",
"A. c #DFC5B4",
"S. c #D6C2BD",
"D. c #D8C1AE",
"F. c #E1C5B2",
"G. c #E3C9B7",
"H. c #E4CBBA",
"J. c #E0C2AE",
"K. c #949CC1",
"L. c #989FC3",
"P. c #8893D9",
"I. c #858ED1",
"U. c #9DA4CA",
"Y. c #9FA7D0",
"T. c #A6A7C8",
"R. c #A5ADD1",
"E. c #A8AFD2",
"W. c #A9B0D3",
"Q. c #FD9FC0",
"!. c #DAB8C5",
"~. c #CABBC1",
"^. c #FFA3C3",
"/. c #FEA8C7",
"(. c #FDABC8",
"). c #E9BFC7",
"_. c #DCD4D5",
"`. c #E7C8C8",
"'. c #E6D1C2",
"]. c #F7C7D9",
"[. c #F6CCDC",
"{. c #F8CEDE",
"}. c #EBE3DC",
"|. c #F5D3E1",
" X c #EFEAE4",
".X c #EDEEF7",
"XX c #FCF9F7",
"oX c white",
"OX c #F8F3EF",
"+X c None",
/* pixels */
"+X+X+X+X+X+X+X+X+X+X+X+X+X+X+X+X        @ @ o @ @ @ @ @ @ @ @ @ @ @ @ @ @ @ o @ @ o @ o X   O   +X+X+X+X+X+X+X+X+X+X+X+X+X+X+X+X",
"+X+X+X+X+X+X+X+X+X+X+X+X+X+X+X+X        o @ @ @ @ @ @ @ @ @ @ o @ @ @ @ @ @ @ @ @ o @ o O       +X+X+X+X+X+X+X+X+X+X+X+X+X+X+X+X",
"+X+X+X+X+X+X+X+X+X+X+X+X+X+X+X+X        o o o o o o @ o + o o + o o o o o o o o . o @ @         +X+X+X+X+X+X+X+X+X+X+X+X+X+X+X+X",
"+X+X+X+X+X+X+X+X+X+X+X+X+X+X+X+X: : : : > 3 3 3 5 5 5 5 > 5 > > 5 5 5 5 3 3 5 5 > > > , O O O O +X+X+X+X+X+X+X+X+X+X+X+X+X+X+X+X",
"+X+X+X+X+X+X+X+X+X+X+X+X      : +.p.p.p.p.p.p.d.!.!.!.!.d.d.p.d.!.!.!.!.d.d.p.p.@.@.@.O.3 @ # # +X+X+X+X+X+X+X+X+X+X+X+X+X+X+X+X",
"+X+X+X+X+X+X+X+X+X+X+X+X      : p.^.^.^.^.^.^./.|.|.|.[./.^.^./.{.|.|.|.(.^.^.k.h.g.g.@.7 # # # +X+X+X+X+X+X+X+X+X+X+X+X+X+X+X+X",
"+X+X+X+X+X+X+X+X+X+X+X+X      : p.^.Q.Q.^.Q.Q./.{.|.|.[.^.k.^./.[.|.|.[./.k.^.k.h.a.g.@.7 # # # +X+X+X+X+X+X+X+X+X+X+X+X+X+X+X+X",
"+X+X+X+X+X+X+X+X+X+X+X+X      : p.^.^.^./././.(.[.[.[.[.(./././.].[.[.].(./.^.^.h.g.g.i.q 7 7 7 +X+X+X+X+X+X+X+X+X+X+X+X+X+X+X+X",
"+X+X+X+X+X+X+X+X+X+X+X+X      : p.Q.^./.].[.[.].(././.(.].{.[.].(.^./.(.].[.[.[.k.k.k.l.q.@.@.O.:       +X+X+X+X+X+X+X+X+X+X+X+X",
"+X+X+X+X+X+X+X+X+X+X+X+X      : p.^.Q./.[.|.|.[./.Q.Q./.{.|.|.[./.^.k./.[.|.|.[.(.k./.k.g.g.g.@.=       +X+X+X+X+X+X+X+X+X+X+X+X",
"+X+X+X+X+X+X+X+X+X+X+X+X      : p.^.k./.[.|.|.[.^.Q.^./.[.|.|.[./.^.^./.[.|.|.[./.k.k.k.g.a.g.@.=       +X+X+X+X+X+X+X+X+X+X+X+X",
"+X+X+X+X+X+X+X+X+X+X+X+X      : p.^.Q./.[.|.|.[./.^.Q./.].[.[.].^.^.k.^.[.|.|.[./.^.^.k.g.a.g.+.:       +X+X+X+X+X+X+X+X+X+X+X+X",
"+X+X+X+X                      : p.^.Q./.[.|.|.[./.Q.^.Q././././.^.k.^./.[.|.|.[./.k.^.k.h.a.g.+.=       +X+X+X+X+X+X+X+X+X+X+X+X",
"+X+X+X+X                      : p.^.Q./.[.|.|.[./.k.Q.^.^.Q.Q.Q.k.^.k./.[.|.|.[./.^.^.k.h.a.a.+.=       +X+X+X+X+X+X+X+X+X+X+X+X",
"+X+X+X+X                      : p.^.k./.[.|.|.[./.Q.^.Q.Q.^.Q.^.^.k.k./.[.|.|.[./.^.^.k.h.a.a.+.:       +X+X+X+X+X+X+X+X+X+X+X+X",
"+X+X+X+X: : : : : : : : : : , 7 p.^.^./.].[.{.]././././.^.Q.^.Q./././.(.].[.[.].k.k.k.l.h.a.a.+.=       +X+X+X+X+X+X+X+X+X+X+X+X",
"      : +.p.p.p.p.p.p.p.p.p.p.p.Q.^.Q.^././././.].[.[.]./.Q.^./.].{.{.].(././.^.h.g.g.g.a.a.g.+.=       +X+X+X+X+X+X+X+X+X+X+X+X",
"      : p.^.^.^.^.^.^.^.^.^.^.^.^.Q.^.Q.Q.^.Q./.[.|.|.[./.Q.Q./.[.|.|.{./.Q.Q.Q.g.a.a.a.a.a.g.+.=       +X+X+X+X+X+X+X+X+X+X+X+X",
"      : p.^.^.^.^.^.^.^.Q.^.Q.^.Q.Q.^.Q.^.Q.^./.[.|.|.[./.^.^.(.{.|.|.{./.Q.Q.Q.h.g.a.g.g.a.g.@.:       +X+X+X+X+X+X+X+X+X+X+X+X",
"      : +.p.p.p.j.j.j.j.j.j.j.j.j.j.j.j.j.j.j.j.).`.`.`.l.f.f.j.).).`.`.j.f.j.f.s.q.q.q.q.q.s.#., . . + +X+X+X+X+X+X+X+X+X+X+X+X",
"+X+X+X+X= : : 3 L P P P P P P P J J J J L J J J K K K K J J J D L K K K J J J A A A A J S A A A u y u e +       +X+X+X+X+X+X+X+X",
"+X+X+X+X      @ C D S S D S S S M M M M M M M M M M M M m M M m B B M M M M M M B M M M M M M M n n n y +       +X+X+X+X+X+X+X+X",
"+X+X+X+X      @ C D D D D D D S B M M M M M M M M M M C M M m M M M B M B B B C M M M M M M M M n n n u +       +X+X+X+X+X+X+X+X",
"+X+X+X+X      @ B D D D D S S S M M m m M m m M m m m m A S S S M m m m n M n n M M n M m M M M n n n u +       +X+X+X+X+X+X+X+X",
"+X+X+X+X      # Z D D S C M C M u t t u y y t y t t t i r.t.t.r.n y y y t t t y t y t t b n n n n n b y +       +X+X+X+X+X+X+X+X",
"+X+X+X+X      + C S D S M M M M t r r t r t r r t r r m t.b.m.t.i r r r r t r t t r t t b n n b n n n y .       +X+X+X+X+X+X+X+X",
"+X+X+X+X      + C D D D B M C i y r r r t r r r t t r i t.m.b.t.i r r r r r r r t r r t b b b b n n n u +       +X+X+X+X+X+X+X+X",
"+X+X+X+X+ + + # N D S S B B B C i N i n Z Z s Z a a a l t.n.n.t.L i i N V V V N s a a s Z A A C n n b u # . + + +X+X+X+X+X+X+X+X",
"      + s Z Z N C M C C M M m S t.b.b.n.}. X X_.%._ _ $.S.G.G.A.B.n.n.A.}. X X_.$._ _ $.c.y.b.t.C n n b u y y e +       +X+X+X+X",
"      + Z D D S C M M M M M C S M.F.F.H.XXoXoX.X=.-.-.*.S.G.H.H.H.H.G.'.XXoXoX.X=...-.*.B.F.G.b.A b n b n b n y .       +X+X+X+X",
"      @ C D D S C M M C M C M S b.F.J.G.XXoXoX.X=.} ..*.S.H.H.H.H.H.H.'.XXoXoX.XI.....*.B.F.J.y.A n n b b b b y +       +X+X+X+X",
"      + i Z Z C m M M m i p p Z y.F.J.G.OXXXXX.XP.*.*.I.S.H.H.H.H.H.G.'.OXXXXX.XP.*.*.I.B.J.J.y.N t u u b b b y +       +X+X+X+X",
"+X+X+X+X@ + + < i M M i # o . 8 e.Z.Z.Z.H.'.'.'.S.S.S.S.H.H.H.H.H.H.H.H.'.'.'.'.`.N.S.S.m.C.Z.e.> + . # e t t w +       +X+X+X+X",
"+X+X+X+X      + i M M i +     = 0.C.y.Z.G.H.G.H.H.H.H.H.H.H.H.H.H.H.H.A.H.H.H.A.H.H.G.G.C.m.C.0.=     . w r r e .       +X+X+X+X",
"+X+X+X+X      + i M M i +     = 0.C.u.Z.G.H.H.H.H.H.H.H.H.H.G.G.H.H.H.H.H.H.H.H.H.H.H.G.C.u.C.0.=     . 0 t t 0 .       +X+X+X+X",
"+X+X+X+X      + i M M p +     - 0.M.x.c.S.`.S.S.A.A.A.A.A.A.G.J.A.A.A.A.A.A.A.A.N.N.N.B.x.x.x.:.-     . 9 w 0 9 .       +X+X+X+X",
"+X+X+X+X+X+X+X+X+X+X+X+X      & } P.P.P.P.P.P.P.2.e.e.e.r.e.e.e.e.e.e.e.e.e.e.,.` ) _ _ ) _ _ Q ; X X X O . . . +X+X+X+X+X+X+X+X",
"+X+X+X+X+X+X+X+X+X+X+X+X      ; } P.;.;.;.=.;.P.,.9.9.9.9.r.r.9.9.9.9.9.1.9.9.>./ ! [ ! ! ! ! W 1 X X X         +X+X+X+X+X+X+X+X",
"+X+X+X+X+X+X+X+X+X+X+X+X      ;  .;.;.;.=.;.=.I.,.9.9.9.>.r.9.1.9.9.9.9.9.9.r.>.) ! ~ ~ ~ ~ ] W 1 X X X         +X+X+X+X+X+X+X+X",
"+X+X+X+X+X+X+X+X+X+X+X+X& & & 4 | ;.;.;.&.&.&.%.<.:.:.>.>.>.>.:.:.>.>.>.I I I <.) ] ] ] ~ ~ ] W 2 1 1 & X       +X+X+X+X+X+X+X+X",
"+X+X+X+X+X+X+X+X      & ( } } X.=.;.;...z f h h ^ ) / / / / ) / / / / ' x k k x { ....| ] ~ ~ ! W W W R $       +X+X+X+X+X+X+X+X",
"+X+X+X+X+X+X+X+X      & } ;.;.;.;.;.;.X.h d d f ^ [ ! ! ! ! ~ [ ! ! ! ^ g g g h { ......] ~ ~ ~ [ [ [ W $       +X+X+X+X+X+X+X+X",
"+X+X+X+X+X+X+X+X      & } ;.;.;.;.;.;.X.h d d f ^ [ [ [ ! ~ ~ ~ ! ! ! ^ h g g h { ......] ~ ~ ~ [ [ ~ W $       +X+X+X+X+X+X+X+X",
"+X+X+X+X+X+X+X+X      & } ;.;.;.=.=.;.| h f f h ^ ] [ [ ] ] ] ] ] ] ] ^ x h g h { ......] ! ~ ! ] [ ] W $       +X+X+X+X+X+X+X+X",
"+X+X+X+X+X+X+X+X      & { ;.;.;.......| U U z U { ...... .....| ..| .. .U U z U { ......! ! ! ~ [ ~ ] W $       +X+X+X+X+X+X+X+X",
"+X+X+X+X+X+X+X+X      &  .;.;.;....... .R U U U  .............-.......| Y U U Y | ......] ! ! ! ] ! ! W $       +X+X+X+X+X+X+X+X",
"+X+X+X+X+X+X+X+X      &  .;.;.;.;..... .Y U U R  .-...................| Y U U Y | ......] ! ! ! ! ! ! W $       +X+X+X+X+X+X+X+X",
"+X+X+X+X+X+X+X+X      * %.P.P.P....... .Y U U Y  .........-...........| Y U U Y | ......{ _ _ _ ) ) ) Q $       +X+X+X+X+X+X+X+X",
"+X+X+X+X+X+X+X+X      - 8.'.S.~.*...-. .Y U U Y | -...................| Y U U Y | ....*.V.S.S.B.c.z.z.<.=       +X+X+X+X+X+X+X+X",
"+X+X+X+X+X+X+X+X      - c.H.A.S.*.-...{ Y U U Y | -...-...-...........| Y U U Y | ....*.S.H.H.G.m.b.m.1.-       +X+X+X+X+X+X+X+X",
"+X+X+X+X+X+X+X+X      - c.H.H.`.*.-.-...Y z U Y  .-.....| ..-.-.......| Y z U Y  .....*.S.H.H.G.m.y.m.1.=       +X+X+X+X+X+X+X+X",
"+X+X+X+X+X+X+X+X      - ,.c.8.8._ ~ / Q E T T E &.&.&.&.&.&.&.&.&.&.&.} E T T E } &.&.*.8.c.c.c.e.,.1.I -       +X+X+X+X+X+X+X+X",
"+X+X+X+X+X+X+X+X+X+X+X+X- - - - & & % 4 7.T.U.T.U.Y.Y.U.U.4.5.5.K.K.K.K.4.4.4.4.K.K.K.$.6 - - - - - = = +X+X+X+X+X+X+X+X+X+X+X+X",
"+X+X+X+X+X+X+X+X+X+X+X+X              ; 5.E.R.E.E.R.R.R.U.5.5.5.K.K.4.K.L.5.L.5.K.5.5.3.*               +X+X+X+X+X+X+X+X+X+X+X+X",
"+X+X+X+X+X+X+X+X+X+X+X+X              ; 4.E.W.E.E.E.E.R.5.5.U.5.K.L.K.K.5.L.5.U.5.5.5.3.*               +X+X+X+X+X+X+X+X+X+X+X+X",
"+X+X+X+X+X+X+X+X+X+X+X+X              * 5.E.W.T.5.5.4.5.3.3.$.3.3.3.3.3.3.3.3.3.5.5.L.3.*               +X+X+X+X+X+X+X+X+X+X+X+X",
"+X+X+X+X+X+X+X+X+X+X+X+X+X+X+X+X      ; 5.E.W.5.6 ; ; ; * * * * * * * * * * * 6 3.L.5.3.*       +X+X+X+X+X+X+X+X+X+X+X+X+X+X+X+X",
"+X+X+X+X+X+X+X+X+X+X+X+X+X+X+X+X      ; 6.E.W.5.;                             * 3.L.L.3.*       +X+X+X+X+X+X+X+X+X+X+X+X+X+X+X+X",
"+X+X+X+X+X+X+X+X+X+X+X+X+X+X+X+X      * 5.E.E.5.;                             * 3.5.K.3.*       +X+X+X+X+X+X+X+X+X+X+X+X+X+X+X+X",
"+X+X+X+X+X+X+X+X+X+X+X+X+X+X+X+X      : 7.T.5.7.;                             * o.6.6.o.*       +X+X+X+X+X+X+X+X+X+X+X+X+X+X+X+X",
"+X+X+X+X+X+X+X+X+X+X+X+X+X+X+X+X      @ F H H F @       +X+X+X+X+X+X+X+X      @ F G G F @       +X+X+X+X+X+X+X+X+X+X+X+X+X+X+X+X",
"+X+X+X+X+X+X+X+X+X+X+X+X+X+X+X+X      @ c v v c @       +X+X+X+X+X+X+X+X      @ c v v c @       +X+X+X+X+X+X+X+X+X+X+X+X+X+X+X+X",
"+X+X+X+X+X+X+X+X+X+X+X+X+X+X+X+X      @ c v v c @       +X+X+X+X+X+X+X+X      @ c v v c @       +X+X+X+X+X+X+X+X+X+X+X+X+X+X+X+X",
"+X+X+X+X+X+X+X+X+X+X+X+X+X+X+X+X      @ c v v c @       +X+X+X+X+X+X+X+X      @ c v v c @       +X+X+X+X+X+X+X+X+X+X+X+X+X+X+X+X"
};
